# Blender v3.3.0 OBJ File: 'grass.blend'
# www.blender.org
mtllib grass3.mtl
o Cube
v 79.213127 47.201172 -80.475693
v 79.213127 157.294617 -80.475693
v 79.213127 47.201172 78.931107
v 79.213127 157.294617 78.931107
v -80.193672 47.201172 -80.475693
v -80.193672 157.294617 -80.475693
v -80.193672 47.201172 78.931107
v -80.193672 157.294617 78.931107
v 79.213120 157.328720 -80.475685
v 79.213120 168.682312 -80.475685
v 79.213120 156.640625 78.931099
v 79.213120 170.005463 78.931099
v -80.193665 157.328720 -80.475685
v -80.193665 173.476807 -80.475685
v -80.193665 156.156601 78.931099
v -55.954201 173.342438 78.931099
v -80.193665 172.811615 -0.772297
v 79.213120 157.328720 -0.772297
v -80.193665 156.485382 -0.772292
v 79.213120 182.743652 -0.772292
v -80.193665 177.336273 39.079399
v -0.490276 177.851624 -80.475685
v 79.213120 167.332489 -80.475685
v -80.193665 172.952484 78.931099
v 79.213120 169.835205 78.931099
v -80.193665 167.332489 -80.475685
v -0.490276 157.328720 78.931099
v 79.213120 157.328720 39.079399
v -0.490276 175.300781 78.931099
v -80.193665 156.406418 -40.623989
v -0.490276 156.775375 -80.475685
v 79.213120 179.746872 -40.623989
v -80.193665 181.907532 -40.623993
v 79.213120 157.328720 -40.623993
v -80.193665 157.328720 39.079403
v 79.213120 172.603424 39.079403
v 79.213120 167.332489 -0.772294
v 11.028807 174.979095 5.887352
v -80.193665 163.571609 -0.772294
v -0.490276 157.328720 -0.772294
v -0.490276 157.328720 -40.623993
v -80.193665 167.332489 39.079403
v 11.510448 164.630173 -35.924934
v 79.213120 167.332489 -40.623993
v -0.490276 169.678833 -80.475685
v 79.213120 167.332489 39.079399
v -23.484966 170.683655 23.739939
v -80.193665 167.332489 -40.623989
v -0.490276 167.332489 78.931099
v -0.490276 157.328720 39.079399
vt 0.625000 0.500000
vt 0.625000 0.750000
vt 0.875000 0.750000
vt 0.875000 0.500000
vt 0.375000 0.750000
vt 0.375000 1.000000
vt 0.625000 1.000000
vt 0.375000 0.000000
vt 0.375000 0.250000
vt 0.625000 0.250000
vt 0.625000 0.000000
vt 0.125000 0.500000
vt 0.125000 0.750000
vt 0.375000 0.500000
vt 0.875000 0.687500
vt 0.750000 0.687500
vt 0.750000 0.750000
vt 0.625000 0.875000
vt 0.500000 0.875000
vt 0.500000 1.000000
vt 0.625000 0.187500
vt 0.500000 0.187500
vt 0.500000 0.250000
vt 0.375000 0.687500
vt 0.250000 0.687500
vt 0.250000 0.750000
vt 0.625000 0.687500
vt 0.500000 0.687500
vt 0.500000 0.750000
vt 0.625000 0.375000
vt 0.500000 0.375000
vt 0.500000 0.500000
vt 0.625000 0.562500
vt 0.500000 0.562500
vt 0.500000 0.625000
vt 0.375000 0.562500
vt 0.250000 0.562500
vt 0.250000 0.625000
vt 0.625000 0.062500
vt 0.500000 0.062500
vt 0.500000 0.125000
vt 0.875000 0.562500
vt 0.750000 0.562500
vt 0.750000 0.625000
vt 0.625000 0.625000
vt 0.750000 0.500000
vt 0.625000 0.500000
vt 0.875000 0.500000
vt 0.375000 0.062500
vt 0.375000 0.125000
vt 0.500000 0.000000
vt 0.375000 0.000000
vt 0.625000 0.000000
vt 0.125000 0.562500
vt 0.125000 0.625000
vt 0.250000 0.500000
vt 0.125000 0.500000
vt 0.375000 0.500000
vt 0.375000 0.625000
vt 0.375000 0.375000
vt 0.375000 0.250000
vt 0.625000 0.250000
vt 0.375000 0.750000
vt 0.125000 0.687500
vt 0.125000 0.750000
vt 0.375000 0.187500
vt 0.625000 0.125000
vt 0.375000 0.875000
vt 0.375000 1.000000
vt 0.625000 0.750000
vt 0.875000 0.625000
vt 0.875000 0.750000
vt 0.625000 1.000000
vn 0.0000 -1.0000 0.0000
vn 0.0000 0.0000 1.0000
vn -1.0000 0.0000 0.0000
vn 0.0000 1.0000 0.0000
vn 1.0000 0.0000 0.0000
vn 0.0000 0.0000 -1.0000
vn -0.0066 0.9967 -0.0806
vn -0.2273 0.9447 -0.2364
vn 0.0116 -0.9999 0.0000
vn 0.0069 -1.0000 0.0000
vn -0.0069 -0.9999 0.0139
vn -0.0160 0.9939 0.1093
vn 0.1698 0.9608 0.2193
vn -0.0536 0.9769 -0.2067
vn 0.1105 0.9605 0.2553
vn 0.1230 0.9921 0.0246
vn -0.0154 0.9935 -0.1128
vn -0.1107 0.9935 0.0250
vn 0.0000 -0.9999 -0.0173
vn 0.0106 -0.9999 0.0000
vn 0.0147 -0.9995 -0.0294
vn 0.0662 0.9957 0.0649
vn -0.1200 0.9900 -0.0744
vn 0.0106 -0.9999 0.0020
vn 0.0000 -0.9999 0.0139
vn 0.0116 -0.9997 -0.0231
vn -0.0055 0.9707 -0.2403
vn 0.1680 0.9565 0.2386
vn -0.2276 0.9383 -0.2605
vn -0.0352 0.9970 -0.0687
vn 0.2635 0.6891 0.6751
vn -0.0549 0.9677 0.2462
vn -0.0086 -1.0000 0.0000
vn 0.0000 -0.9998 0.0212
usemtl Material
s off
f 1/1/1 3/2/1 7/3/1 5/4/1
f 4/5/2 8/6/2 7/7/2 3/2/2
f 8/8/3 6/9/3 5/10/3 7/11/3
f 6/12/4 8/13/4 4/5/4 2/14/4
f 2/14/5 4/5/5 3/2/5 1/1/5
f 6/9/6 2/14/6 1/1/6 5/10/6
usemtl Material.001
f 35/15/1 50/16/1 27/17/1
f 27/18/2 49/19/2 24/20/2
f 30/21/3 48/22/3 26/23/3
f 36/24/7 47/25/7 29/26/7
f 28/27/5 46/28/5 25/29/5
f 31/30/6 45/31/6 23/32/6
f 34/33/5 44/34/5 37/35/5
f 32/36/8 43/37/8 38/38/8
f 35/39/3 42/40/3 39/41/3
f 30/42/9 41/43/9 40/44/9
f 41/43/1 34/33/1 18/45/1
f 31/46/10 9/47/10 34/33/10
f 13/48/11 31/46/11 41/43/11
f 42/40/3 21/49/3 17/50/3
f 24/51/12 16/52/12 21/49/12
f 15/53/3 24/51/3 42/40/3
f 43/37/13 33/54/13 17/55/13
f 22/56/14 14/57/14 33/54/14
f 10/58/15 22/56/15 43/37/15
f 44/34/5 32/36/5 20/59/5
f 23/32/5 10/58/5 32/36/5
f 9/47/5 23/32/5 44/34/5
f 45/31/6 22/60/6 10/58/6
f 26/23/6 14/61/6 22/60/6
f 13/62/6 26/23/6 45/31/6
f 46/28/5 36/24/5 12/63/5
f 37/35/5 20/59/5 36/24/5
f 18/45/5 37/35/5 46/28/5
f 47/25/16 21/64/16 16/65/16
f 38/38/17 17/55/17 21/64/17
f 20/59/18 38/38/18 47/25/18
f 48/22/3 33/66/3 14/61/3
f 39/41/3 17/50/3 33/66/3
f 19/67/3 39/41/3 48/22/3
f 49/19/2 29/68/2 16/69/2
f 25/29/2 12/63/2 29/68/2
f 11/70/2 25/29/2 49/19/2
f 50/16/19 28/27/19 11/70/19
f 40/44/1 18/45/1 28/27/1
f 19/71/20 40/44/20 50/16/20
f 35/15/21 27/17/21 15/72/21
f 27/18/2 24/20/2 15/73/2
f 30/21/3 26/23/3 13/62/3
f 36/24/22 29/26/22 12/63/22
f 28/27/5 25/29/5 11/70/5
f 31/30/6 23/32/6 9/47/6
f 34/33/5 37/35/5 18/45/5
f 32/36/23 38/38/23 20/59/23
f 35/39/3 39/41/3 19/67/3
f 30/42/24 40/44/24 19/71/24
f 41/43/1 18/45/1 40/44/1
f 31/46/25 34/33/25 41/43/25
f 13/48/26 41/43/26 30/42/26
f 42/40/3 17/50/3 39/41/3
f 24/51/3 21/49/3 42/40/3
f 15/53/3 42/40/3 35/39/3
f 43/37/27 17/55/27 38/38/27
f 22/56/28 33/54/28 43/37/28
f 10/58/29 43/37/29 32/36/29
f 44/34/5 20/59/5 37/35/5
f 23/32/5 32/36/5 44/34/5
f 9/47/5 44/34/5 34/33/5
f 45/31/6 10/58/6 23/32/6
f 26/23/6 22/60/6 45/31/6
f 13/62/6 45/31/6 31/30/6
f 46/28/5 12/63/5 25/29/5
f 37/35/5 36/24/5 46/28/5
f 18/45/5 46/28/5 28/27/5
f 47/25/30 16/65/30 29/26/30
f 38/38/31 21/64/31 47/25/31
f 20/59/32 47/25/32 36/24/32
f 48/22/3 14/61/3 26/23/3
f 39/41/3 33/66/3 48/22/3
f 19/67/3 48/22/3 30/21/3
f 49/19/2 16/69/2 24/20/2
f 25/29/2 29/68/2 49/19/2
f 11/70/2 49/19/2 27/18/2
f 50/16/33 11/70/33 27/17/33
f 40/44/1 28/27/1 50/16/1
f 19/71/34 50/16/34 35/15/34
