# Blender v3.3.0 OBJ File: 'grass.blend'
# www.blender.org
mtllib grassP1.mtl
o Cube
v 79.213127 47.201172 -80.475693
v 79.213127 157.294617 -80.475693
v 79.213127 47.201172 78.931107
v 79.213127 157.294617 78.931107
v -80.193672 47.201172 -80.475693
v -80.193672 157.294617 -80.475693
v -80.193672 47.201172 78.931107
v -80.193672 157.294617 78.931107
v 79.213120 157.328720 -80.475685
v 79.213120 180.658203 -80.475685
v 79.213120 156.640625 78.931099
v 79.213120 181.459763 78.931099
v -80.193665 157.328720 -80.475685
v -80.193665 170.160767 -80.475685
v -80.193665 156.156601 78.931099
v -73.794853 173.342438 78.931099
v -80.193665 181.270905 -0.772297
v 79.213120 157.328720 -0.772297
v -80.193665 156.485382 -0.772292
v 79.213120 177.336273 -0.772292
v -80.193665 177.336273 39.079399
v -0.490276 186.026886 -80.475685
v 79.213120 167.332489 -80.475685
v -80.193665 162.105469 78.931099
v 79.213120 170.560440 78.931099
v -80.193665 167.332489 -80.475685
v -0.490276 157.328720 78.931099
v 79.213120 157.328720 39.079399
v -0.490276 170.243073 78.931099
v -80.193665 157.328720 -40.623989
v -0.490276 156.775375 -80.475685
v 79.213120 179.746872 -40.623989
v -80.193665 168.489594 -40.623993
v 79.213120 157.328720 -40.623993
v -80.193665 157.328720 39.079403
v 79.213120 177.336273 39.079403
v 79.213120 167.332489 -0.772294
v -0.490276 165.709412 -0.772294
v -80.193665 163.571609 -0.772294
v -0.490276 157.328720 -0.772294
v -0.490276 157.328720 -40.623993
v -80.193665 167.332489 39.079403
v -0.490276 177.336273 -40.623993
v 79.213120 167.332489 -40.623993
v -0.490276 169.678833 -80.475685
v 79.213120 167.332489 39.079399
v -0.490276 170.683655 33.584152
v -80.193665 167.332489 -40.623989
v -0.490276 167.332489 78.931099
v -0.490276 157.328720 39.079399
vt 0.625000 0.500000
vt 0.625000 0.750000
vt 0.875000 0.750000
vt 0.875000 0.500000
vt 0.375000 0.750000
vt 0.375000 1.000000
vt 0.625000 1.000000
vt 0.375000 0.000000
vt 0.375000 0.250000
vt 0.625000 0.250000
vt 0.625000 0.000000
vt 0.125000 0.500000
vt 0.125000 0.750000
vt 0.375000 0.500000
vt 0.875000 0.687500
vt 0.750000 0.687500
vt 0.750000 0.750000
vt 0.625000 0.875000
vt 0.500000 0.875000
vt 0.500000 1.000000
vt 0.625000 0.187500
vt 0.500000 0.187500
vt 0.500000 0.250000
vt 0.375000 0.687500
vt 0.250000 0.687500
vt 0.250000 0.750000
vt 0.625000 0.687500
vt 0.500000 0.687500
vt 0.500000 0.750000
vt 0.625000 0.375000
vt 0.500000 0.375000
vt 0.500000 0.500000
vt 0.625000 0.562500
vt 0.500000 0.562500
vt 0.500000 0.625000
vt 0.375000 0.562500
vt 0.250000 0.562500
vt 0.250000 0.625000
vt 0.625000 0.062500
vt 0.500000 0.062500
vt 0.500000 0.125000
vt 0.875000 0.562500
vt 0.750000 0.562500
vt 0.750000 0.625000
vt 0.625000 0.625000
vt 0.750000 0.500000
vt 0.625000 0.500000
vt 0.875000 0.500000
vt 0.375000 0.062500
vt 0.375000 0.125000
vt 0.500000 0.000000
vt 0.375000 0.000000
vt 0.625000 0.000000
vt 0.125000 0.562500
vt 0.125000 0.625000
vt 0.250000 0.500000
vt 0.125000 0.500000
vt 0.375000 0.500000
vt 0.375000 0.625000
vt 0.375000 0.375000
vt 0.375000 0.250000
vt 0.625000 0.250000
vt 0.375000 0.750000
vt 0.125000 0.687500
vt 0.125000 0.750000
vt 0.375000 0.187500
vt 0.625000 0.125000
vt 0.375000 0.875000
vt 0.375000 1.000000
vt 0.625000 0.750000
vt 0.875000 0.625000
vt 0.875000 0.750000
vt 0.625000 1.000000
vn 0.0000 -1.0000 0.0000
vn 0.0000 0.0000 1.0000
vn -1.0000 0.0000 0.0000
vn 0.0000 1.0000 0.0000
vn 1.0000 0.0000 0.0000
vn 0.0000 0.0000 -1.0000
vn -0.0838 0.9964 0.0097
vn -0.0290 0.9596 0.2800
vn 0.0069 -1.0000 0.0000
vn -0.0069 -0.9999 0.0139
vn -0.8539 0.4862 0.1858
vn -0.1051 0.9469 -0.3037
vn -0.1951 0.9799 0.0411
vn 0.0657 0.9749 0.2126
vn 0.0887 0.9924 0.0852
vn 0.1907 0.9769 0.0965
vn -0.1429 0.9795 -0.1418
vn 0.0000 -0.9999 -0.0173
vn 0.0106 -0.9999 0.0000
vn 0.0147 -0.9995 -0.0294
vn -0.1386 0.9851 -0.1019
vn -0.1441 0.9878 0.0597
vn 0.0106 -0.9997 -0.0212
vn 0.0000 -0.9999 0.0139
vn 0.1842 0.9435 0.2753
vn -0.1078 0.9713 0.2118
vn -0.0302 0.9993 0.0229
vn 0.0422 0.9991 0.0097
vn 0.0725 0.9871 -0.1429
vn -0.0832 0.9965 0.0000
vn -0.0086 -1.0000 0.0000
vn 0.0000 -0.9998 0.0212
usemtl Material
s off
f 1/1/1 3/2/1 7/3/1 5/4/1
f 4/5/2 8/6/2 7/7/2 3/2/2
f 8/8/3 6/9/3 5/10/3 7/11/3
f 6/12/4 8/13/4 4/5/4 2/14/4
f 2/14/5 4/5/5 3/2/5 1/1/5
f 6/9/6 2/14/6 1/1/6 5/10/6
usemtl Material.001
f 35/15/1 50/16/1 27/17/1
f 27/18/2 49/19/2 24/20/2
f 30/21/3 48/22/3 26/23/3
f 36/24/7 47/25/7 29/26/7
f 28/27/5 46/28/5 25/29/5
f 31/30/6 45/31/6 23/32/6
f 34/33/5 44/34/5 37/35/5
f 32/36/8 43/37/8 38/38/8
f 35/39/3 42/40/3 39/41/3
f 30/42/1 41/43/1 40/44/1
f 41/43/1 34/33/1 18/45/1
f 31/46/9 9/47/9 34/33/9
f 13/48/10 31/46/10 41/43/10
f 42/40/3 21/49/3 17/50/3
f 24/51/11 16/52/11 21/49/11
f 15/53/3 24/51/3 42/40/3
f 43/37/12 33/54/12 17/55/12
f 22/56/13 14/57/13 33/54/13
f 10/58/14 22/56/14 43/37/14
f 44/34/5 32/36/5 20/59/5
f 23/32/5 10/58/5 32/36/5
f 9/47/5 23/32/5 44/34/5
f 45/31/6 22/60/6 10/58/6
f 26/23/6 14/61/6 22/60/6
f 13/62/6 26/23/6 45/31/6
f 46/28/5 36/24/5 12/63/5
f 37/35/5 20/59/5 36/24/5
f 18/45/5 37/35/5 46/28/5
f 47/25/15 21/64/15 16/65/15
f 38/38/16 17/55/16 21/64/16
f 20/59/17 38/38/17 47/25/17
f 48/22/3 33/66/3 14/61/3
f 39/41/3 17/50/3 33/66/3
f 19/67/3 39/41/3 48/22/3
f 49/19/2 29/68/2 16/69/2
f 25/29/2 12/63/2 29/68/2
f 11/70/2 25/29/2 49/19/2
f 50/16/18 28/27/18 11/70/18
f 40/44/1 18/45/1 28/27/1
f 19/71/19 40/44/19 50/16/19
f 35/15/20 27/17/20 15/72/20
f 27/18/2 24/20/2 15/73/2
f 30/21/3 26/23/3 13/62/3
f 36/24/21 29/26/21 12/63/21
f 28/27/5 25/29/5 11/70/5
f 31/30/6 23/32/6 9/47/6
f 34/33/5 37/35/5 18/45/5
f 32/36/22 38/38/22 20/59/22
f 35/39/3 39/41/3 19/67/3
f 30/42/23 40/44/23 19/71/23
f 41/43/1 18/45/1 40/44/1
f 31/46/24 34/33/24 41/43/24
f 13/48/1 41/43/1 30/42/1
f 42/40/3 17/50/3 39/41/3
f 24/51/3 21/49/3 42/40/3
f 15/53/3 42/40/3 35/39/3
f 43/37/25 17/55/25 38/38/25
f 22/56/26 33/54/26 43/37/26
f 10/58/27 43/37/27 32/36/27
f 44/34/5 20/59/5 37/35/5
f 23/32/5 32/36/5 44/34/5
f 9/47/5 44/34/5 34/33/5
f 45/31/6 10/58/6 23/32/6
f 26/23/6 22/60/6 45/31/6
f 13/62/6 45/31/6 31/30/6
f 46/28/5 12/63/5 25/29/5
f 37/35/5 36/24/5 46/28/5
f 18/45/5 46/28/5 28/27/5
f 47/25/28 16/65/28 29/26/28
f 38/38/29 21/64/29 47/25/29
f 20/59/30 47/25/30 36/24/30
f 48/22/3 14/61/3 26/23/3
f 39/41/3 33/66/3 48/22/3
f 19/67/3 48/22/3 30/21/3
f 49/19/2 16/69/2 24/20/2
f 25/29/2 29/68/2 49/19/2
f 11/70/2 49/19/2 27/18/2
f 50/16/31 11/70/31 27/17/31
f 40/44/1 28/27/1 50/16/1
f 19/71/32 50/16/32 35/15/32
